<svg width="79" height="79" viewBox="0 0 79 79" fill="none" xmlns="http://www.w3.org/2000/svg">
<path d="M35.5499 15.8002C32.5361 15.8002 29.7237 16.6416 27.326 18.107C27.0782 16.7815 26.6265 15.5023 25.987 14.315C28.9941 12.6509 32.3834 11.8003 35.8199 11.8473C39.2565 11.8943 42.6213 12.8372 45.5818 14.583C48.5423 16.3287 50.996 18.8168 52.7003 21.8013C54.4047 24.7858 55.3007 28.1634 55.2999 31.6002H65.1789C66.7496 31.6013 68.2556 32.226 69.3659 33.337C70.4762 34.4481 71.0999 35.9545 71.0999 37.5252V61.2252C71.0999 62.7966 70.4757 64.3037 69.3645 65.4148C68.2534 66.526 66.7463 67.1502 65.1749 67.1502H41.4749C39.9035 67.1502 38.3964 66.526 37.2853 65.4148C36.1741 64.3037 35.5499 62.7966 35.5499 61.2252V51.3502C32.8022 51.3537 30.0842 50.7819 27.5709 49.6715C27.6223 48.3285 27.6499 46.9183 27.6499 45.4252V45.287C29.9725 46.63 32.6704 47.4002 35.5499 47.4002V37.5252C35.5499 35.9538 36.1741 34.4468 37.2853 33.3356C38.3964 32.2245 39.9035 31.6002 41.4749 31.6002H51.3499C51.3499 27.4098 49.6853 23.391 46.7222 20.4279C43.7591 17.4649 39.7403 15.8002 35.5499 15.8002ZM54.9049 35.5502C54.128 39.3445 52.2539 42.827 49.5153 45.5656C46.7767 48.3042 43.2941 50.1783 39.4999 50.9552V61.2252C39.4999 61.749 39.708 62.2514 40.0784 62.6218C40.4487 62.9922 40.9511 63.2002 41.4749 63.2002H65.1749C65.6987 63.2002 66.2011 62.9922 66.5714 62.6218C66.9418 62.2514 67.1499 61.749 67.1499 61.2252V37.5252C67.1499 37.0014 66.9418 36.4991 66.5714 36.1287C66.2011 35.7583 65.6987 35.5502 65.1749 35.5502H54.9049ZM50.8522 35.5502H41.4749C40.9511 35.5502 40.4487 35.7583 40.0784 36.1287C39.708 36.4991 39.4999 37.0014 39.4999 37.5252V46.9025C42.2326 46.1946 44.7262 44.7687 46.7222 42.7726C48.7183 40.7765 50.1442 38.2829 50.8522 35.5502ZM18.0949 8.39398C18.4227 8.68076 18.6466 9.06788 18.7316 9.49509C18.8166 9.9223 18.758 10.3656 18.5649 10.7561C18.5315 10.8716 18.5142 10.9913 18.5136 11.1116C18.5136 11.3604 18.5768 11.8344 19.1732 12.4269C19.4616 12.7153 19.6828 12.9207 19.9237 13.1458C20.1212 13.3275 20.3306 13.5171 20.5952 13.7778C21.1087 14.2676 21.6499 14.8443 22.1357 15.5672C23.143 17.08 23.6999 18.9721 23.6999 21.7252C23.6999 25.0946 22.4517 27.9662 20.5044 29.7279L20.7572 30.0202C21.8632 31.379 22.507 33.1407 22.9099 34.8787C23.6999 38.3152 23.6999 42.4469 23.6999 45.3265V45.4252C23.6999 56.4339 22.2029 62.6788 20.5557 66.2496C19.7262 68.0469 18.8454 69.1924 18.083 69.9113C17.7731 70.2086 17.4313 70.4709 17.0639 70.6934C16.8957 70.7947 16.7201 70.8831 16.5386 70.958C16.5386 70.958 16.0922 71.1002 15.7999 71.1002C15.5076 71.1002 15.0613 70.958 15.0613 70.958C14.8778 70.8875 14.7018 70.7989 14.5359 70.6934C14.1685 70.4709 13.8267 70.2086 13.5168 69.9113C12.7545 69.1884 11.8736 68.0469 11.0441 66.2496C9.39695 62.6788 7.8999 56.4339 7.8999 45.4252V45.3265C7.8999 42.443 7.8999 38.3152 8.6899 34.8787C9.0928 33.1407 9.73665 31.379 10.8427 30.0202C10.9217 29.9215 11.0086 29.8227 11.0955 29.7279C9.1481 27.9662 7.8999 25.0946 7.8999 21.7252C7.8999 20.4375 8.24355 18.901 8.71755 17.4829C9.19155 16.0609 9.85515 14.5915 10.6215 13.4065C11.5339 11.866 12.8177 10.5744 13.8131 9.70538C14.3588 9.22544 14.9283 8.77325 15.5195 8.35053L15.638 8.27153L15.6735 8.24388L15.6854 8.23598L15.6933 8.23203C16.0555 7.9906 16.4873 7.87558 16.9216 7.90487C17.3559 7.93415 17.7683 8.1061 18.0949 8.39398ZM15.7999 27.6502C17.3286 27.6463 19.7499 25.9517 19.7499 21.7252C19.7499 19.5409 19.3194 18.4704 18.8454 17.7594C18.5572 17.3442 18.2247 16.9614 17.8539 16.6179L17.3641 16.1597C17.0442 15.8595 16.6689 15.5119 16.3766 15.2235C15.9446 14.796 15.5737 14.3108 15.2746 13.7818C14.7718 14.3105 14.3293 14.8934 13.9553 15.5198C13.4023 16.369 12.8651 17.5343 12.4661 18.7351C12.0553 19.9596 11.8499 21.0419 11.8499 21.7252C11.8499 25.9596 14.2792 27.6502 15.7999 27.6502H15.8078H15.7999ZM13.9039 32.5166C13.343 33.2 12.8769 34.2902 12.5372 35.7675C11.8578 38.7221 11.8499 42.4351 11.8499 45.4252C11.8499 56.1416 13.3154 61.7466 14.6307 64.5946C15.0652 65.5307 15.4721 66.1548 15.7999 66.5696C16.2666 65.96 16.6591 65.297 16.9691 64.5946C18.2845 61.7466 19.7499 56.1416 19.7499 45.4252C19.7499 42.4351 19.742 38.7221 19.0587 35.7675C18.719 34.2902 18.2529 33.2 17.6959 32.5166C17.478 32.2214 17.1915 31.9837 16.8612 31.824C16.5308 31.6644 16.1666 31.5876 15.7999 31.6002H15.792C15.4266 31.5885 15.0638 31.6658 14.7349 31.8254C14.406 31.9851 14.1208 32.2223 13.9039 32.5166Z" fill="black"/>
</svg>
