<svg width="79" height="79" viewBox="0 0 79 79" fill="none" xmlns="http://www.w3.org/2000/svg">
<path d="M51.7351 8.13203C51.8305 7.8221 51.8638 7.49642 51.8332 7.1736C51.8027 6.85078 51.7089 6.53714 51.5571 6.25059C51.4053 5.96403 51.1986 5.71017 50.9488 5.50351C50.6989 5.29684 50.4108 5.14141 50.1008 5.0461C49.7909 4.95078 49.4652 4.91745 49.1424 4.94799C48.8196 4.97854 48.5059 5.07237 48.2194 5.22413C47.9328 5.37589 47.679 5.58261 47.4723 5.83248C47.2656 6.08235 47.1102 6.37047 47.0149 6.68041L27.2649 70.8679C27.0724 71.4939 27.1364 72.1706 27.4429 72.7494C27.7494 73.3281 28.2733 73.7614 28.8992 73.9538C29.5252 74.1463 30.2019 74.0823 30.7807 73.7758C31.3594 73.4693 31.7926 72.9455 31.9851 72.3195L51.7351 8.13203ZM23.9666 20.4708C24.1965 20.7002 24.379 20.9726 24.5034 21.2725C24.6279 21.5725 24.6919 21.894 24.6919 22.2187C24.6919 22.5434 24.6279 22.865 24.5034 23.1649C24.379 23.4648 24.1965 23.7373 23.9666 23.9666L8.42833 39.5L23.9666 55.0333C24.4302 55.4969 24.6906 56.1256 24.6906 56.7812C24.6906 57.4368 24.4302 58.0655 23.9666 58.5291C23.5031 58.9927 22.8743 59.2531 22.2188 59.2531C21.5632 59.2531 20.9345 58.9927 20.4709 58.5291L3.18964 41.2478C2.95974 41.0185 2.77733 40.7461 2.65288 40.4462C2.52842 40.1462 2.46436 39.8247 2.46436 39.5C2.46436 39.1752 2.52842 38.8537 2.65288 38.5538C2.77733 38.2538 2.95974 37.9814 3.18964 37.7521L20.4709 20.4708C20.7002 20.2409 20.9726 20.0585 21.2726 19.9341C21.5725 19.8096 21.894 19.7456 22.2188 19.7456C22.5435 19.7456 22.865 19.8096 23.165 19.9341C23.4649 20.0585 23.7373 20.2409 23.9666 20.4708ZM55.0334 20.4708C54.8035 20.7002 54.6211 20.9726 54.4966 21.2725C54.3722 21.5725 54.3081 21.894 54.3081 22.2187C54.3081 22.5434 54.3722 22.865 54.4966 23.1649C54.6211 23.4648 54.8035 23.7373 55.0334 23.9666L70.5717 39.5L55.0334 55.0333C54.8039 55.2629 54.6218 55.5354 54.4976 55.8353C54.3733 56.1352 54.3094 56.4566 54.3094 56.7812C54.3094 57.1058 54.3733 57.4273 54.4976 57.7272C54.6218 58.0271 54.8039 58.2996 55.0334 58.5291C55.2629 58.7586 55.5354 58.9407 55.8353 59.0649C56.1352 59.1892 56.4567 59.2531 56.7813 59.2531C57.1059 59.2531 57.4273 59.1892 57.7272 59.0649C58.0271 58.9407 58.2996 58.7586 58.5291 58.5291L75.8104 41.2478C76.0403 41.0185 76.2227 40.7461 76.3472 40.4462C76.4716 40.1462 76.5357 39.8247 76.5357 39.5C76.5357 39.1752 76.4716 38.8537 76.3472 38.5538C76.2227 38.2538 76.0403 37.9814 75.8104 37.7521L58.5291 20.4708C58.2998 20.2409 58.0274 20.0585 57.7275 19.9341C57.4275 19.8096 57.106 19.7456 56.7813 19.7456C56.4565 19.7456 56.135 19.8096 55.8351 19.9341C55.5351 20.0585 55.2627 20.2409 55.0334 20.4708Z" fill="black"/>
</svg>
