<svg width="48" height="46" viewBox="0 0 48 46" fill="none" xmlns="http://www.w3.org/2000/svg">
<path fill-rule="evenodd" clip-rule="evenodd" d="M24 2.09C11.89 2.09 2.086 11.844 2.086 23.856C2.086 32.676 7.372 40.266 14.98 43.68C15.776 44.038 16.554 43.896 17.162 43.44C17.4982 43.1782 17.7693 42.842 17.9539 42.4579C18.1385 42.0738 18.2316 41.6521 18.226 41.226V40.086L15.512 39.718C15.4919 39.7153 15.4719 39.712 15.452 39.708C13.956 39.416 12.946 38.89 12.206 38.132C11.584 37.494 11.204 36.73 10.882 36.082L10.77 35.856C10.4724 35.2352 10.1474 34.628 9.796 34.036C9.526 33.608 9.316 33.388 9.108 33.25C8.58 32.9 8.072 32.306 8.072 31.564C8.0702 31.3504 8.11592 31.1391 8.20586 30.9454C8.29579 30.7517 8.42769 30.5804 8.592 30.444C8.90211 30.1985 9.2886 30.0696 9.684 30.08C10.128 30.08 10.546 30.216 10.894 30.372C11.25 30.532 11.604 30.744 11.934 30.964C12.738 31.5 13.53 32.134 14.2 32.916C14.898 33.728 15.392 34.244 16.136 34.35C16.748 34.438 17.372 34.44 17.858 34.418C17.9255 34.0332 18.0369 33.6574 18.19 33.298C17.5964 33.1595 17.0109 32.9886 16.436 32.786C15.128 32.322 13.67 31.6 12.69 30.506C11.614 29.302 10.948 28.228 10.576 26.972C10.214 25.748 10.154 24.422 10.154 22.79C10.154 20.29 11.236 18.184 12.048 17.066C11.736 16.0872 11.5118 15.0826 11.378 14.064C11.2894 13.4217 11.2901 12.7702 11.38 12.128C11.48 11.542 11.73 10.822 12.388 10.388C13.022 9.966 13.766 9.984 14.346 10.092C14.948 10.206 15.574 10.456 16.15 10.742C17.088 11.206 18.02 11.826 18.718 12.352C19.922 11.998 22.052 11.542 23.978 11.5H24.022C25.95 11.542 27.984 11.998 29.158 12.35C29.858 11.826 30.788 11.204 31.724 10.742C32.3 10.456 32.924 10.206 33.528 10.092C34.108 9.984 34.852 9.966 35.488 10.386C36.144 10.822 36.396 11.542 36.494 12.128C36.596 12.738 36.572 13.42 36.494 14.064C36.3608 15.0825 36.1372 16.0871 35.826 17.066C36.638 18.186 37.72 20.292 37.72 22.79C37.72 24.422 37.66 25.748 37.3 26.97C36.926 28.23 36.26 29.302 35.184 30.506C34.204 31.6 32.746 32.322 31.438 32.786C30.7437 33.03 30.0342 33.2285 29.314 33.38C29.56 34.124 29.648 34.726 29.648 35.072V41.252C29.648 42.192 30.086 42.994 30.708 43.462C31.312 43.92 32.088 44.062 32.884 43.714C40.564 40.33 45.912 32.72 45.912 23.854C45.912 11.844 36.112 2.09 24 2.09ZM18.952 36.42C18.432 36.494 18.95 36.42 18.95 36.42H18.944L18.928 36.424L18.87 36.432C18.5729 36.4669 18.2748 36.4916 17.976 36.506C17.2642 36.5431 16.5505 36.5143 15.844 36.42C14.262 36.196 13.3 35.076 12.678 34.348L12.618 34.28C12.4146 34.0441 12.1962 33.8216 11.964 33.614C12.17 33.994 12.384 34.418 12.614 34.874L12.634 34.914L12.736 35.122C13.086 35.818 13.316 36.282 13.698 36.67C14.07 37.05 14.65 37.418 15.822 37.65L19.41 38.136C19.6606 38.1699 19.8904 38.2936 20.0566 38.4842C20.2229 38.6747 20.3143 38.9191 20.314 39.172V41.226C20.314 42.826 19.564 44.252 18.414 45.116C17.8102 45.5773 17.092 45.8651 16.3367 45.9483C15.5814 46.0315 14.8177 45.9069 14.128 45.588C5.804 41.854 0 33.54 0 23.856C0 10.672 10.754 0 24 0C37.246 0 48 10.672 48 23.856C48 33.59 42.122 41.926 33.726 45.628C33.0357 45.9408 32.2734 46.0601 31.5206 45.9731C30.7677 45.8861 30.0527 45.5961 29.452 45.134C28.858 44.6767 28.3781 44.0881 28.0499 43.4142C27.7216 42.7403 27.5539 41.9996 27.56 41.25V35.07C27.56 34.93 27.462 34.122 26.916 33.036C26.8406 32.8854 26.8027 32.7189 26.8053 32.5505C26.808 32.3821 26.8511 32.2169 26.9312 32.0687C27.0113 31.9206 27.1258 31.7939 27.2652 31.6994C27.4046 31.605 27.5647 31.5455 27.732 31.526C28.7573 31.3975 29.7658 31.1588 30.74 30.814C31.928 30.394 32.994 29.818 33.628 29.11C34.57 28.058 35.04 27.25 35.298 26.376C35.566 25.47 35.634 24.416 35.634 22.79C35.634 20.508 34.434 18.59 33.882 17.972C33.7567 17.8323 33.6713 17.6615 33.6347 17.4775C33.5981 17.2935 33.6117 17.103 33.674 16.926C34.0295 15.9183 34.2808 14.8769 34.424 13.818C34.488 13.268 34.492 12.808 34.436 12.476C34.4235 12.3546 34.3867 12.237 34.328 12.13C34.1903 12.1062 34.0491 12.1123 33.914 12.148C33.574 12.212 33.14 12.372 32.648 12.616C31.668 13.1 30.648 13.816 30.016 14.328C29.8766 14.4411 29.7104 14.5162 29.5334 14.5459C29.3564 14.5757 29.1747 14.5592 29.006 14.498C27.3867 13.9683 25.7023 13.6634 24 13.592C21.986 13.64 19.662 14.212 18.868 14.498C18.6993 14.5592 18.5176 14.5757 18.3406 14.5459C18.1636 14.5162 17.9974 14.4411 17.858 14.328C17.0407 13.67 16.1588 13.0964 15.226 12.616C14.8254 12.4056 14.3992 12.2483 13.958 12.148C13.8235 12.1126 13.683 12.1065 13.546 12.13C13.4872 12.2369 13.4505 12.3546 13.438 12.476C13.382 12.808 13.386 13.268 13.45 13.818C13.5941 14.8767 13.8454 15.9181 14.2 16.926C14.326 17.286 14.248 17.686 13.992 17.972C13.44 18.59 12.24 20.508 12.24 22.79C12.24 24.414 12.308 25.47 12.576 26.376C12.836 27.25 13.304 28.056 14.244 29.11C14.88 29.818 15.944 30.394 17.134 30.814C18.1075 31.1585 19.1154 31.3972 20.14 31.526C20.3508 31.5486 20.5497 31.6349 20.7103 31.7733C20.8709 31.9118 20.9855 32.0959 21.0389 32.301C21.0923 32.5062 21.082 32.7228 21.0093 32.922C20.9366 33.1211 20.805 33.2935 20.632 33.416C20.302 33.652 20.084 34.076 19.962 34.566C19.899 34.8183 19.8615 35.0762 19.85 35.336V35.374C19.8525 35.6276 19.7629 35.8735 19.5977 36.0659C19.4325 36.2583 19.203 36.3841 18.952 36.42V36.42Z" fill="#F89E76"/>
</svg>
