<svg width="430" height="86" viewBox="0 0 430 86" fill="none" xmlns="http://www.w3.org/2000/svg">
<g opacity="0.2">
<g clip-path="url(#clip0_457_1743)">
<path d="M407.791 30.6733C407.791 30.6733 400.817 52.5424 400.248 54.3484C398.492 40.6424 396.719 26.9385 394.93 13.2368C383.048 13.2368 376.694 21.6935 373.337 30.6196L364.146 54.4022C364.092 52.6965 362.855 30.8776 362.855 30.8776C362.125 19.9412 352.106 13.2834 344 13.2834L353.815 72.7667C366.263 72.713 372.975 64.3065 376.49 55.3804C376.49 55.3804 383.979 36.0376 384.287 35.1597C384.341 35.9838 389.662 72.7631 389.662 72.7631C402.161 72.7631 408.876 64.8727 412.488 56.2583L430 13.287C417.655 13.287 411.148 21.6935 407.791 30.6697V30.6733Z" fill="black"/>
</g>
<path d="M265.167 43.0002C267.067 43.0002 268.89 43.7552 270.234 45.0992C271.578 46.4432 272.333 48.2661 272.333 50.1668V64.5002C272.333 66.4009 273.088 68.2237 274.432 69.5678C275.776 70.9118 277.599 71.6668 279.5 71.6668H322.5C324.401 71.6668 326.223 70.9118 327.567 69.5678C328.911 68.2237 329.667 66.4009 329.667 64.5002V50.1668C329.667 48.2661 330.422 46.4432 331.766 45.0992C333.11 43.7552 334.932 43.0002 336.833 43.0002M265.167 43.0002C267.067 43.0002 268.89 42.2451 270.234 40.9011C271.578 39.5571 272.333 37.7342 272.333 35.8335V21.5002C272.333 19.5994 273.088 17.7766 274.432 16.4326C275.776 15.0886 277.599 14.3335 279.5 14.3335H322.5C324.401 14.3335 326.223 15.0886 327.567 16.4326C328.911 17.7766 329.667 19.5994 329.667 21.5002V35.8335C329.667 37.7342 330.422 39.5571 331.766 40.9011C333.11 42.2451 334.932 43.0002 336.833 43.0002H265.167Z" stroke="black" stroke-width="7.16667" stroke-linecap="round" stroke-linejoin="round"/>
<path d="M290.25 57.3332V28.6665H302.792C304.692 28.6665 306.515 29.4216 307.859 30.7656C309.203 32.1096 309.958 33.9325 309.958 35.8332C309.958 37.7339 309.203 39.5568 307.859 40.9008C306.515 42.2448 304.692 42.9998 302.792 42.9998H290.25H304.583C306.484 42.9998 308.307 43.7549 309.651 45.0989C310.995 46.4429 311.75 48.2658 311.75 50.1665C311.75 52.0672 310.995 53.8901 309.651 55.2341C308.307 56.5781 306.484 57.3332 304.583 57.3332H290.25Z" stroke="black" stroke-width="7.16667" stroke-linecap="round" stroke-linejoin="round"/>
<path d="M198.203 56.4377V67.1877C198.203 69.1478 197.424 71.0277 196.038 72.4137C194.652 73.7997 192.773 74.5783 190.812 74.5783C188.852 74.5783 186.973 73.7997 185.587 72.4137C184.201 71.0277 183.422 69.1478 183.422 67.1877C183.422 66.6531 183.634 66.1405 184.012 65.7625C184.39 65.3844 184.903 65.1721 185.438 65.1721C185.972 65.1721 186.485 65.3844 186.863 65.7625C187.241 66.1405 187.453 66.6531 187.453 67.1877C187.453 68.0787 187.807 68.9332 188.437 69.5632C189.067 70.1932 189.922 70.5471 190.812 70.5471C191.703 70.5471 192.558 70.1932 193.188 69.5632C193.818 68.9332 194.172 68.0787 194.172 67.1877V56.4377C194.172 55.9031 194.384 55.3905 194.762 55.0125C195.14 54.6344 195.653 54.4221 196.188 54.4221C196.722 54.4221 197.235 54.6344 197.613 55.0125C197.991 55.3905 198.203 55.9031 198.203 56.4377ZM212.716 62.3838C210.095 61.7119 208.953 61.2752 208.953 60.469C208.953 58.4197 210.834 58.1174 211.977 58.1174C213.325 58.1279 214.637 58.5498 215.739 59.3268C216.154 59.6016 216.656 59.7131 217.149 59.6398C217.641 59.5665 218.089 59.3136 218.406 58.9299C218.723 58.5461 218.887 58.0586 218.866 57.5612C218.845 57.0639 218.64 56.5919 218.292 56.2362C216.492 54.8233 214.265 54.065 211.977 54.0862C207.811 54.0862 204.922 56.7065 204.922 60.469C204.922 64.2315 208.819 65.5416 211.674 66.2807C214.53 67.0197 215.672 67.5237 215.672 68.5315C215.672 69.5393 215.672 70.883 211.977 70.883C210.63 70.8662 209.319 70.4449 208.214 69.6736C208.016 69.4717 207.778 69.3136 207.516 69.2095C207.253 69.1055 206.971 69.0579 206.689 69.0698C206.406 69.0817 206.13 69.1529 205.877 69.2787C205.624 69.4044 205.4 69.582 205.22 69.7999C205.04 70.0178 204.908 70.2711 204.832 70.5434C204.756 70.8157 204.738 71.1008 204.78 71.3804C204.822 71.6599 204.922 71.9276 205.073 72.166C205.225 72.4044 205.425 72.6083 205.661 72.7643C207.461 74.1772 209.688 74.9354 211.977 74.9143C216.814 74.9143 219.703 72.5291 219.703 68.5315C219.703 64.5338 215.504 63.1229 212.716 62.3838ZM243.891 29.6299V72.5627C243.891 73.8101 243.395 75.0063 242.513 75.8883C241.631 76.7703 240.435 77.2658 239.188 77.2658H231.125C230.59 77.2658 230.078 77.0535 229.7 76.6755C229.322 76.2975 229.109 75.7848 229.109 75.2502C229.109 74.7156 229.322 74.203 229.7 73.825C230.078 73.4469 230.59 73.2346 231.125 73.2346H239.188C239.366 73.2346 239.537 73.1638 239.663 73.0378C239.789 72.9118 239.859 72.7409 239.859 72.5627V31.5783H223.062C222.528 31.5783 222.015 31.366 221.637 30.988C221.259 30.61 221.047 30.0973 221.047 29.5627V12.7658H190.812C190.634 12.7658 190.463 12.8366 190.337 12.9626C190.211 13.0886 190.141 13.2595 190.141 13.4377V48.3752C190.141 48.9098 189.928 49.4225 189.55 49.8005C189.172 50.1785 188.66 50.3908 188.125 50.3908C187.59 50.3908 187.078 50.1785 186.7 49.8005C186.322 49.4225 186.109 48.9098 186.109 48.3752V13.4377C186.109 12.1904 186.605 10.9941 187.487 10.1121C188.369 9.2301 189.565 8.7346 190.812 8.7346H223.062C223.327 8.73053 223.589 8.78229 223.832 8.88648C224.076 8.99068 224.294 9.14497 224.473 9.33928L243.286 28.1182C243.478 28.3064 243.63 28.5312 243.734 28.7793C243.838 29.0274 243.891 29.2938 243.891 29.5627V29.6299ZM225.078 27.5471H237.004L225.078 15.6213V27.5471Z" fill="black"/>
<g clip-path="url(#clip1_457_1743)">
<path d="M112.882 0H122.12V3.86283H116.745V7.72567H122.12V11.5885H112.882V0ZM123.966 0H133.207V3.36117H127.832V4.03125H133.207V11.7569H123.966V8.23092H129.341V7.55725H123.966V0ZM135.056 0H144.29V3.36117H138.915V4.03125H144.29V11.7569H135.056V8.23092H140.431V7.55725H135.056V0Z" fill="black"/>
<path fill-rule="evenodd" clip-rule="evenodd" d="M128.968 86.0003L104.085 79.0916L96.75 16.9028H161.25L153.918 79.0844L128.968 86.0003ZM111.252 45.0535L111.936 52.6788H138.37L137.485 62.5688L128.979 64.8693H128.971L120.479 62.576L119.934 56.4951H112.277L113.344 68.4706L128.968 72.8064L144.616 68.4706L146.522 47.0996L146.709 45.0535L148.085 29.6129H109.879L110.574 37.2418H139.729L139.033 45.0535H111.252Z" fill="black"/>
</g>
<path d="M18.2031 0H22.0803V3.83058H25.6278V0H29.505V11.5957H25.6278V7.71492H22.0803V11.5957H18.2067V0H18.2031ZM34.6005 3.84492H31.1891V0H41.8925V3.84492H38.4776V11.5957H34.6005V3.84492ZM43.591 0H47.633L50.1199 4.07425L52.6031 0H56.6451V11.5957H52.7859V5.848L50.1199 9.97242H50.0518L47.3822 5.85158V11.5957H43.591V0ZM58.573 0H62.4537V7.76508H67.9004V11.5992H58.573V0Z" fill="black"/>
<path fill-rule="evenodd" clip-rule="evenodd" d="M18.0815 79.0916L10.75 16.9028H75.25L67.9149 79.0844L42.9642 86.0003L18.0815 79.0916ZM32.9057 45.0499L32.2106 37.2382H61.3968L62.0777 29.6129H23.8793L25.9362 52.6788H52.3704L51.4853 62.5688L42.9785 64.8693H42.9713L34.4788 62.576L33.9342 56.4951H26.273L27.3408 68.4706L42.9642 72.8064L58.6126 68.4706L60.5189 47.0996L60.7052 45.0535H32.9057V45.0499Z" fill="black"/>
</g>
<defs>
<clipPath id="clip0_457_1743">
<rect width="86" height="86" fill="white" transform="translate(344)"/>
</clipPath>
<clipPath id="clip1_457_1743">
<rect width="86" height="86" fill="white" transform="translate(86)"/>
</clipPath>
</defs>
</svg>
