<svg width="48" height="48" viewBox="0 0 48 48" fill="none" xmlns="http://www.w3.org/2000/svg">
<g clip-path="url(#clip0_457_1719)">
<path d="M23.9998 -0.0510254C10.7383 -0.0510254 -0.0527344 10.737 -0.0527344 24C-0.0527344 37.263 10.7383 48.051 23.9998 48.051C37.2613 48.051 48.0523 37.263 48.0523 24C48.0523 10.737 37.2613 -0.0510254 23.9998 -0.0510254ZM23.9998 46.449C11.6218 46.449 1.55227 36.378 1.55227 24C1.55227 11.622 11.6218 1.55097 23.9998 1.55097C36.3778 1.55097 46.4473 11.622 46.4473 24C46.4473 36.378 36.3778 46.449 23.9998 46.449Z" fill="#F89E76"/>
<path d="M37.1906 16.569C37.3569 16.261 37.494 15.9381 37.6 15.6045C37.6491 15.4497 37.6501 15.2837 37.6029 15.1284C37.5557 14.9731 37.4624 14.8358 37.3355 14.7345C37.2086 14.6333 37.054 14.5729 36.8921 14.5614C36.7301 14.5499 36.5685 14.5877 36.4285 14.67C35.6599 15.1266 34.8279 15.4668 33.9595 15.6795C32.9055 14.7281 31.5365 14.2007 30.1165 14.199C29.3451 14.1996 28.5818 14.3559 27.8722 14.6587C27.1627 14.9614 26.5216 15.4043 25.9874 15.9608C25.4531 16.5173 25.0368 17.176 24.7632 17.8973C24.4897 18.6186 24.3647 19.3877 24.3956 20.1585C21.0221 19.7338 17.9416 18.0267 15.7931 15.3915C15.7107 15.2916 15.6055 15.2131 15.4864 15.1627C15.3672 15.1122 15.2377 15.0912 15.1087 15.1015C14.9797 15.1118 14.8551 15.1531 14.7455 15.2219C14.6359 15.2906 14.5445 15.3848 14.4791 15.4965C13.9871 16.3409 13.7197 17.2972 13.7024 18.2743C13.685 19.2514 13.9183 20.2167 14.3801 21.078C14.2668 21.0971 14.158 21.1367 14.0591 21.195C13.9378 21.2723 13.8379 21.3789 13.7687 21.505C13.6995 21.6311 13.6632 21.7726 13.6631 21.9165C13.6631 23.619 14.4206 25.182 15.6416 26.244L15.5891 26.2965C15.4969 26.4008 15.4335 26.5272 15.405 26.6635C15.3766 26.7997 15.3842 26.941 15.4271 27.0735C15.6817 27.8678 16.1068 28.5968 16.6727 29.2096C17.2385 29.8224 17.9315 30.3041 18.7031 30.621C17.1184 31.394 15.3451 31.6955 13.5941 31.4895C13.4141 31.4711 13.2331 31.513 13.0794 31.6086C12.9258 31.7041 12.8082 31.8479 12.7451 32.0175C12.6844 32.1883 12.6833 32.3746 12.7418 32.5461C12.8004 32.7176 12.9151 32.8644 13.0676 32.9625C15.4481 34.4903 18.2174 35.302 21.0461 35.301C30.3161 35.301 35.8571 27.771 35.8571 20.4915L35.8555 20.2455C36.7539 19.5441 37.5343 18.7035 38.1671 17.7555C38.2629 17.6122 38.31 17.4418 38.3014 17.2696C38.2929 17.0974 38.2291 16.9326 38.1196 16.7995C38.01 16.6664 37.8605 16.5721 37.6932 16.5306C37.5259 16.489 37.3496 16.5025 37.1906 16.569V16.569ZM34.5731 19.2015C34.4642 19.2797 34.3767 19.384 34.3185 19.5048C34.2604 19.6256 34.2334 19.7591 34.2401 19.893C34.2491 20.091 34.2536 20.292 34.2536 20.49C34.2536 26.982 29.3141 33.6975 21.0476 33.6975C19.5732 33.6982 18.1093 33.4507 16.7171 32.9655C18.3844 32.6459 19.9508 31.9309 21.2846 30.8805C21.4144 30.7781 21.5094 30.6381 21.5567 30.4797C21.604 30.3213 21.6011 30.1521 21.5486 29.9953C21.4961 29.8386 21.3964 29.7018 21.2632 29.6039C21.13 29.5059 20.9698 29.4515 20.8046 29.448C20.1578 29.4356 19.523 29.2714 18.9513 28.9687C18.3797 28.6659 17.8872 28.233 17.5136 27.705C17.8931 27.6795 18.2651 27.6165 18.6266 27.519C18.8015 27.4722 18.9554 27.3674 19.0632 27.2219C19.171 27.0763 19.2262 26.8985 19.22 26.7175C19.2137 26.5365 19.1463 26.363 19.0287 26.2252C18.9111 26.0874 18.7503 25.9936 18.5726 25.959C17.8421 25.8104 17.1658 25.466 16.6159 24.9627C16.0661 24.4593 15.6634 23.816 15.4511 23.1015C15.8501 23.202 16.2596 23.2605 16.6691 23.274C17.0216 23.2725 17.3486 23.0565 17.4581 22.7175C17.5676 22.3785 17.4386 22.005 17.1401 21.807C16.4343 21.3367 15.8908 20.6601 15.584 19.8695C15.2771 19.0788 15.2218 18.2127 15.4256 17.3895C18.0311 20.0629 21.5494 21.655 25.2775 21.8475C25.5415 21.849 25.7726 21.7545 25.9331 21.561C26.0936 21.3675 26.1551 21.111 26.0981 20.865C25.8929 19.9815 25.9847 19.055 26.3591 18.2289C26.7336 17.4028 27.3699 16.7232 28.1696 16.2951C28.9692 15.8671 29.8877 15.7146 30.7828 15.8612C31.6778 16.0078 32.4997 16.4453 33.121 17.106C33.2142 17.2053 33.3311 17.2794 33.4607 17.3211C33.5903 17.3628 33.7284 17.3709 33.8621 17.3445C34.1096 17.295 34.354 17.238 34.5955 17.172C34.4867 17.2535 34.3735 17.3291 34.2565 17.3985C34.101 17.4938 33.9826 17.6392 33.9207 17.8108C33.8589 17.9824 33.8574 18.17 33.9164 18.3426C33.9755 18.5151 34.0916 18.6625 34.2455 18.7603C34.3995 18.858 34.5822 18.9004 34.7636 18.8805L35.0366 18.846C34.8862 18.9698 34.7316 19.0884 34.5731 19.2015V19.2015Z" fill="#F89E76"/>
</g>
<defs>
<clipPath id="clip0_457_1719">
<rect width="48" height="48" fill="white"/>
</clipPath>
</defs>
</svg>
